<?xml version="1.0" encoding="UTF-8" standalone="no"?> <svg width="100" height="100" viewBox="0 0 100 100" fill="none" xmlns="http://www.w3.org/2000/svg">
<rect width="100" height="100" fill="white"/>
<path d="M66.3039 27.4776C68.7045 25.9839 71.6496 28.3363 70.7233 31.0076L65.713 45.4564C65.3179 46.5957 65.6434 47.8608 66.5392 48.6679L76.8131 57.9253C78.9012 59.8068 77.4875 63.269 74.6793 63.1514L60.8413 62.5715C59.6143 62.5201 58.4799 63.2217 57.9778 64.3424L52.0536 77.5673C50.8881 80.1691 47.0916 79.831 46.4042 77.0641L42.9629 63.2118C42.6648 62.012 41.6614 61.118 40.4353 60.9598L26.0464 59.1029C23.2268 58.739 22.4477 55.0228 24.8836 53.5571L36.6493 46.4772C37.8126 45.7772 38.3607 44.3833 37.9859 43.0784L34.2317 30.0093C33.4125 27.1577 36.7879 24.9744 39.0529 26.8909L49.3322 35.5888C50.3262 36.4299 51.7494 36.5337 52.8549 35.8458L66.3039 27.4776Z" fill="#FFE500"/>
<path d="M68.7111 31.6998L63.3645 44.6563C62.7861 46.058 63.176 47.6726 64.3303 48.6559L75.0005 57.7446C76.8441 59.315 75.6011 62.3271 73.1865 62.1403L59.212 61.0591C57.7002 60.9422 56.2851 61.812 55.7067 63.2136L50.36 76.1701C49.4362 78.4088 46.1874 78.1574 45.6189 75.8033L42.3288 62.1786C41.9729 60.7047 40.7084 59.6276 39.1966 59.5106L25.222 58.4294C22.8074 58.2426 22.0425 55.0751 24.1058 53.807L36.0469 46.4677C37.3387 45.6737 37.9724 44.1382 37.6164 42.6643L34.3263 29.0396C33.7578 26.6854 36.5339 24.9792 38.3776 26.5496L49.0477 35.6383C50.202 36.6215 51.8582 36.7497 53.15 35.9557L65.0911 28.6163C67.1544 27.3482 69.635 29.4611 68.7111 31.6998Z" stroke="black" stroke-opacity="0.75"/>
<path d="M64.4705 35.2331L62.3072 39.5863L61.235 43.9417" stroke="white" stroke-width="2" stroke-linecap="round" stroke-linejoin="round"/>
</svg>
